# xmcd
#
# Track frame offsets:
#	150
#	22233
#	62611
#	82020
#	107011
#	124202
#	141140
#	150942
#	169126
#	187168
#	212409
#	228028
#	263241
#	301947
#
# Disc length: 4162 seconds
#
# Revision: 6
# Processed by: cddbd v1.5.2PL0 Copyright (c) Steve Scherf et al.
# Submitted via: EZCDAudioConverter 2.1.7.1
#
DISCID=b910400e
DTITLE=V/A - Dream Pop
DYEAR=2010
DGENRE=MOJO
TTITLE0=Cluster and Eno - Ho Renomo
TTITLE1=Sigur Rós - Svefn-G-Englar
TTITLE2=School Of Seven Bells - Half Asleep [Alternate Version]
TTITLE3=Sweet Billy Pilgrim - Bloodless Coup
TTITLE4=Cocteau Twins - Bluebeard
TTITLE5=Galaxie 500 - Tell Me
TTITLE6=Felt - Sempiternal Darkness
TTITLE7=Panda Bear - Comfy In Nautica
TTITLE8=Beach House - Norway
TTITLE9=Ruby Suns - Closet Astrologer
TTITLE10=Lawrence Arabia - Dream Teacher
TTITLE11=Mercury Rev - Butterfly's Wing
TTITLE12=Cinematic Orchestra - To Build A Home
TTITLE13=Data
EXTD=
EXTT0=
EXTT1=
EXTT2=
EXTT3=
EXTT4=
EXTT5=
EXTT6=
EXTT7=
EXTT8=
EXTT9=
EXTT10=
EXTT11=
EXTT12=
EXTT13=
PLAYORDER=
